<?xml version="1.0" encoding="utf-8"?>
<svg version="1.1" xmlns:xlink="http://www.w3.org/1999/xlink" width="138px" height="138px" xmlns="http://www.w3.org/2000/svg">
  <defs>
    <filter x="67px" y="18px" width="138px" height="138px" filterUnits="userSpaceOnUse" id="filter51">
      <feOffset dx="0" dy="0" in="SourceAlpha" result="shadowOffsetInner" />
      <feGaussianBlur stdDeviation="5" in="shadowOffsetInner" result="shadowGaussian" />
      <feComposite in2="shadowGaussian" operator="atop" in="SourceAlpha" result="shadowComposite" />
      <feColorMatrix type="matrix" values="0 0 0 0 0  0 0 0 0 0  0 0 0 0 0  0 0 0 0.313725490196078 0  " in="shadowComposite" />
    </filter>
    <g id="widget52">
      <path d="M 100.517480653247 100.574708299792  C 89.4994248285137 111.615700947881  74.5071872953907 117.804738291574  58.8826194410317 117.762250204232  C 26.3634196793499 117.762250204558  0.00155867414002842 91.4894495405821  0.00155867414002842 59.0803074875149  C 0.00155867414002842 26.6711654344477  26.3634196793499 0.398364770471618  58.8824232309021 0.398364770471618  C 91.4014267824542 0.398364770471618  117.763287787664 26.6711654344477  117.763287787664 59.0803074875149  C 117.763287787664 74.64372693205  111.559785478776 89.5697091860888  100.517480653247 100.574708299792  Z M 117.313816654297 59.0803894521089  C 117.313816654297 26.9701023329591  91.1016386476673 0.846600929564966  58.8826194410317 0.84660092956496  C 26.6635982284749 0.84660092956496  0.45142222776654 26.9701143278254  0.45142222776654 59.080395449542  C 0.45142222776654 91.1906765712587  26.6635962225538 117.314297923316  58.8826194410317 117.314297923316  C 91.1016426595096 117.314297923316  117.313816654297 91.1906765712587  117.313816654297 59.0803894521089  Z " fill-rule="nonzero" fill="#2f2e41" stroke="none" transform="matrix(1 0 0 1 77 28 )" />
    </g>
  </defs>
  <g transform="matrix(1 0 0 1 -67 -18 )">
    <use xlink:href="#widget52" filter="url(#filter51)" />
    <use xlink:href="#widget52" />
  </g>
</svg>